#!OML:ASF E:\emotionWalksFemale\Project 1\Capture day 1\Session 1\Female1.ASF
:FULLY-SPECIFIED
:DEGREES
511
root 8.87506 15.6456 -11.5488 -180.601 5.41626 -182.897
lowerback 4.20848 2.83584 0.0892145
upperback -4.48705 3.87553 -1.20148
thorax -6.94919 1.92919 -1.70342
lowerneck -7.72514 -2.27774 -7.53422
upperneck 21.0723 -4.37765 5.94796
head 8.05154 -2.57734 2.77618
rclavicle 3.16751e-014 -2.98177e-016
rhumerus -38.2477 3.94318 -83.4354
rradius 33.7856
rwrist 17.4183
rhand 1.60043 -54.6855
rfingers 7.12502
rthumb 27.1224 -82.7569
lclavicle 3.16751e-014 -2.98177e-016
lhumerus -48.0594 7.88186 74.6634
lradius 35.6923
lwrist -12.1958
lhand -3.85843 -33.4538
lfingers 7.12502
lthumb 21.8899 -4.67206
rfemur -5.02104 -1.31383 19.4205
rtibia 64.1088
rfoot 9.33222 -7.95656
rtoes 1.33618
lfemur -8.49638 -16.8438 -30.0362
ltibia 15.6204
lfoot -10.4009 21.7095
ltoes -8.3494
512
root 8.87086 15.6429 -11.6631 -180.556 5.01264 -182.821
lowerback 4.38246 2.67788 0.188077
upperback -4.51409 3.67288 -1.13138
thorax -7.08225 1.82358 -1.67667
lowerneck -8.26734 -2.32445 -7.29624
upperneck 21.7429 -4.43438 5.55859
head 8.36761 -2.63177 2.59392
rclavicle -2.84697e-014 -1.50579e-014
rhumerus -38.4109 3.47785 -83.075
rradius 33.3279
rwrist 17.9054
rhand 0.609874 -53.7598
rfingers 7.12502
rthumb 26.1744 -81.9754
lclavicle -2.84697e-014 -1.50579e-014
lhumerus -47.6911 7.54145 75.0307
lradius 35.5547
lwrist -12.4248
lhand -4.23316 -33.7968
lfingers 7.12502
lthumb 21.53 -4.97347
rfemur -6.60319 -1.8036 19.5226
rtibia 65.4625
rfoot 8.30782 -7.98303
rtoes 5.23958
lfemur -8.17214 -16.668 -30.1786
ltibia 15.8041
lfoot -10.5947 21.279
ltoes -9.51004
513
root 8.86884 15.6364 -11.7757 -180.512 4.5879 -182.662
lowerback 4.46456 2.5136 0.362819
upperback -4.45309 3.46416 -1.03935
thorax -7.06534 1.71165 -1.65848
lowerneck -8.76431 -2.4841 -7.01964
upperneck 22.2873 -4.56292 4.84154
head 8.63345 -2.74267 2.28476
rclavicle 2.20154e-014 4.37326e-015
rhumerus -38.3995 2.81548 -82.63
rradius 32.8834
rwrist 18.5326
rhand -0.163462 -53.1294
rfingers 7.12502
rthumb 25.4338 -81.4525
lclavicle 2.20154e-014 4.37326e-015
lhumerus -47.1454 7.47731 75.2408
lradius 35.1287
lwrist -13.2535
lhand -5.13937 -34.6224
lfingers 7.12502
lthumb 20.6595 -5.70195
rfemur -8.11945 -2.18325 19.7648
rtibia 66.5952
rfoot 5.42691 -8.13037
rtoes 0.0130953
lfemur -7.92245 -16.7562 -30.2048
ltibia 16.152
lfoot -11.0045 20.9735
ltoes -9.9868
514
root 8.86748 15.6324 -11.8963 -180.51 4.12287 -182.586
lowerback 4.44702 2.32017 0.456167
upperback -4.42612 3.21254 -0.988308
thorax -7.03089 1.58394 -1.62941
lowerneck -8.73952 -2.55685 -6.77031
upperneck 22.4492 -4.64058 4.39192
head 8.67403 -2.81268 2.08121
rclavicle -1.92076e-014 2.38542e-015
rhumerus -38.5043 2.08834 -82.2195
rradius 32.4663
rwrist 19.2522
rhand -0.33811 -52.862
rfingers 7.12502
rthumb 25.2665 -81.2089
lclavicle -1.92076e-014 2.38542e-015
lhumerus -46.7455 7.15513 75.5301
lradius 34.9107
lwrist -13.7598
lhand -5.48459 -35.0151
lfingers 7.12502
lthumb 20.3278 -6.05891
rfemur -9.46266 -2.57173 19.915
rtibia 67.4744
rfoot 3.45862 -8.59814
rtoes -2.27846
lfemur -7.62143 -16.7189 -30.3487
ltibia 16.5526
lfoot -11.6119 20.5277
ltoes -9.73104
515
root 8.86492 15.6265 -12.0153 -180.601 3.56632 -182.653
lowerback 4.57923 2.10284 0.374366
upperback -4.40491 2.91346 -0.957424
thorax -7.09859 1.43955 -1.52644
lowerneck -8.40508 -2.46199 -6.7405
upperneck 22.3207 -4.54406 4.39911
head 8.56112 -2.77332 2.09315
rclavicle 1.07344e-014 -2.08724e-015
rhumerus -38.7295 1.47835 -81.8364
rradius 32.1191
rwrist 19.8254
rhand -0.338297 -52.7039
rfingers 7.12502
rthumb 25.2663 -81.0508
lclavicle 1.07344e-014 -2.08724e-015
lhumerus -46.4614 6.4622 76.1307
lradius 35.1927
lwrist -13.6294
lhand -4.99861 -34.5697
lfingers 7.12502
lthumb 20.7948 -5.66401
rfemur -10.6782 -3.11099 19.8786
rtibia 68.1462
rfoot 1.95426 -9.23996
rtoes -1.96849
lfemur -7.12845 -16.5199 -30.6923
ltibia 16.8045
lfoot -11.9818 19.9955
ltoes -10.6303
516
root 8.86106 15.62 -12.1323 -180.695 2.99141 -182.66
lowerback 4.77706 1.86095 0.341529
upperback -4.40909 2.58786 -0.885687
thorax -7.23073 1.28017 -1.40756
lowerneck -8.23543 -2.33629 -6.61767
upperneck 22.2962 -4.3845 4.28628
head 8.50599 -2.70618 2.05272
rclavicle -1.51822e-014 -7.25564e-015
rhumerus -39.0335 1.09506 -81.5447
rradius 31.8773
rwrist 19.7552
rhand -0.763125 -52.8153
rfingers 7.12502
rthumb 24.8592 -81.2191
lclavicle -1.51822e-014 -7.25564e-015
lhumerus -46.2837 6.0029 76.6059
lradius 35.425
lwrist -13.7128
lhand -4.7389 -34.0947
lfingers 7.12502
lthumb 21.0443 -5.21654
rfemur -11.8603 -3.60836 19.9232
rtibia 68.6118
rfoot 0.240649 -9.87246
rtoes -1.62268
lfemur -6.57531 -16.5336 -30.9752
ltibia 16.9403
lfoot -12.0305 19.7371
ltoes -13.0191
517
root 8.85814 15.6181 -12.2603 -180.748 2.42803 -182.648
lowerback 4.73859 1.63254 0.356242
upperback -4.36571 2.28389 -0.816338
thorax -7.17129 1.13132 -1.30765
lowerneck -8.27778 -2.34243 -6.45789
upperneck 22.4314 -4.38024 4.02448
head 8.55077 -2.72273 1.93638
rclavicle 1.23992e-014 -1.19271e-015
rhumerus -39.2711 0.617716 -81.2175
rradius 31.6644
rwrist 19.6825
rhand -1.07366 -53.1509
rfingers 7.12502
rthumb 24.5616 -81.5954
lclavicle 1.23992e-014 -1.19271e-015
lhumerus -45.962 5.68736 76.9457
lradius 35.3829
lwrist -14.2065
lhand -4.65118 -33.8292
lfingers 7.12502
lthumb 21.1285 -4.96039
rfemur -13.007 -4.01711 19.9981
rtibia 68.856
rfoot -1.6639 -10.4149
rtoes -1.37892
lfemur -6.0108 -16.838 -31.2484
ltibia 17.1025
lfoot -12.1529 19.7694
ltoes -15.4395
518
root 8.85762 15.6137 -12.3826 -180.788 1.92604 -182.616
lowerback 4.74143 1.46248 0.336867
upperback -4.31458 2.05586 -0.723475
thorax -7.12736 1.0215 -1.17387
lowerneck -8.13801 -2.34949 -6.50024
upperneck 22.3794 -4.38775 3.98715
head 8.50799 -2.73685 1.93195
rclavicle -1.20762e-014 3.97569e-016
rhumerus -39.4833 -0.00277695 -80.7694
rradius 31.5363
rwrist 19.9554
rhand -0.791919 -53.6335
rfingers 7.12502
rthumb 24.8316 -82.0411
lclavicle -1.20762e-014 3.97569e-016
lhumerus -45.3187 5.49734 77.3106
lradius 34.9428
lwrist -15.0911
lhand -4.95119 -34.2008
lfingers 7.12502
lthumb 20.8403 -5.30014
rfemur -14.2173 -4.34305 20.1483
rtibia 68.9467
rfoot -3.19698 -10.8747
rtoes -1.18376
lfemur -5.48813 -17.1562 -31.4637
ltibia 17.2798
lfoot -12.5369 19.7343
ltoes -16.0634
519
root 8.8589 15.6052 -12.4954 -180.837 1.43625 -182.582
lowerback 4.85666 1.301 0.277217
upperback -4.26811 1.83616 -0.613109
thorax -7.15435 0.91714 -1.00375
lowerneck -7.98029 -2.28919 -6.57604
upperneck 22.2189 -4.29993 4.0532
head 8.42217 -2.69276 1.97873
rclavicle 3.03147e-015 -6.75868e-015
rhumerus -39.7112 -0.396569 -80.4176
rradius 31.4819
rwrist 20.0155
rhand -0.493556 -54.1212
rfingers 7.12502
rthumb 25.1175 -82.4891
lclavicle 3.03147e-015 -6.75868e-015
lhumerus -44.573 5.38557 77.7238
lradius 34.4311
lwrist -15.7926
lhand -5.43932 -34.8822
lfingers 7.12502
lthumb 20.3713 -5.93072
rfemur -15.4017 -4.56534 20.3548
rtibia 68.8746
rfoot -4.61934 -11.4284
rtoes -1.53103
lfemur -5.07201 -17.3445 -31.6308
ltibia 17.5429
lfoot -13.0139 19.4833
ltoes -16.4692
520
root 8.86156 15.5945 -12.6149 -180.931 0.9205 -182.65
lowerback 4.90814 1.15207 0.156702
upperback -4.16483 1.62218 -0.568821
thorax -7.08208 0.8168 -0.865653
lowerneck -7.81058 -2.34791 -6.57026
upperneck 22.0312 -4.37973 4.0616
head 8.3324 -2.72568 1.97557
rclavicle -9.44227e-016 5.36719e-015
rhumerus -39.9674 -0.783628 -80.1426
rradius 31.4825
rwrist 19.8862
rhand -0.386549 -54.4572
rfingers 7.12502
rthumb 25.2201 -82.8106
lclavicle -9.44227e-016 5.36719e-015
lhumerus -43.889 4.9891 78.2279
lradius 34.208
lwrist -16.1528
lhand -5.49552 -35.0106
lfingers 7.12502
lthumb 20.3173 -6.0533
rfemur -16.4344 -4.74645 20.411
rtibia 68.6213
rfoot -6.18821 -12.2182
rtoes -1.09547
lfemur -4.65298 -17.5084 -31.9471
ltibia 17.998
lfoot -13.5251 19.3104
ltoes -17.0426
521
root 8.86525 15.5794 -12.7327 -181.03 0.443333 -182.506
lowerback 5.02158 1.03912 0.23312
upperback -4.09761 1.47721 -0.464938
thorax -7.07899 0.74192 -0.785339
lowerneck -7.7733 -2.39833 -6.6735
upperneck 22.0483 -4.46295 4.14893
head 8.34047 -2.76773 2.01427
rclavicle 1.26974e-014 7.7526e-015
rhumerus -40.3773 -1.31564 -79.7633
rradius 31.537
rwrist 19.9739
rhand -0.513472 -54.3601
rfingers 7.12502
rthumb 25.0985 -82.7306
lclavicle 1.26974e-014 7.7526e-015
lhumerus -43.3209 4.54138 78.755
lradius 34.0954
lwrist -16.5847
lhand -5.31013 -34.8645
lfingers 7.12502
lthumb 20.4954 -5.92629
rfemur -17.4424 -4.84644 20.734
rtibia 68.1761
rfoot -7.4184 -13.2107
rtoes -0.699894
lfemur -4.25298 -17.638 -32.0284
ltibia 18.5242
lfoot -13.9747 19.226
ltoes -16.3345
522
root 8.86799 15.5642 -12.8443 -181.123 0.0153893 -182.273
lowerback 5.21917 0.925759 0.378431
upperback -4.10109 1.34435 -0.315626
thorax -7.19944 0.671364 -0.700242
lowerneck -7.5391 -2.48363 -6.66616
upperneck 21.8851 -4.57565 4.07415
head 8.24785 -2.82835 1.98047
rclavicle -1.47846e-014 -1.19271e-014
rhumerus -40.8202 -1.59738 -79.4288
rradius 31.4675
rwrist 19.9677
rhand -0.739185 -54.0336
rfingers 7.12502
rthumb 24.8822 -82.4342
lclavicle -1.47846e-014 -1.19271e-014
lhumerus -42.9413 4.25374 79.2353
lradius 34.1535
lwrist -16.9619
lhand -5.07675 -34.5879
lfingers 7.12502
lthumb 20.7197 -5.67402
rfemur -18.462 -4.84217 21.1801
rtibia 67.564
rfoot -8.36435 -14.2348
rtoes -1.07232
lfemur -3.92459 -17.7526 -31.9758
ltibia 19.0607
lfoot -14.4978 19.0464
ltoes -15.4252
